<svg xmlns="http://www.w3.org/2000/svg" version="1.1" xmlns:xlink="http://www.w3.org/1999/xlink" xmlns:svgjs="http://svgjs.dev/svgjs" width="1000" height="1000"><g clip-path="url(#SvgjsClipPath1225)"><rect width="1000" height="1000" fill="#1e1e2e"></rect><g transform="matrix(5.530744023339739,0,0,5.530744023339739,162.42802427996628,150)"><svg xmlns="http://www.w3.org/2000/svg" version="1.1" xmlns:xlink="http://www.w3.org/1999/xlink" xmlns:svgjs="http://svgjs.dev/svgjs" width="122.07109" height="126.56525"><svg version="1.1" id="svg1" width="122.07109" height="126.56525" viewBox="0 0 122.07109 126.56525" xmlns="http://www.w3.org/2000/svg" xmlns:svg="http://www.w3.org/2000/svg">
  <defs id="defs1"><clipPath id="SvgjsClipPath1225"><rect width="1000" height="1000" x="0" y="0" rx="500" ry="500"></rect></clipPath></defs>
  <path id="path70" d="m 69.830347,117.11883 c 4.57027,-3.62293 9.2708,-4.80933 13.99374,-4.80933 5.21453,0 10.45693,1.44626 15.58226,2.65573 0.932003,0.15467 1.850673,0.2296 2.750673,0.2296 7.63333,0 13.77333,-5.31253 12.20133,-11.4828 -3.148,-12.225468 -14.702663,-18.282798 -24.006133,-25.946798 -3.012,-2.32387 -6.724,-3.3012 -10.7276,-3.3012 -11.80627,0 -26.134399,8.51213 -32.409466,16.16267 -5.338533,8.7864 -20.086932,28.487998 -5.296266,34.743728 2.509333,0.83067 4.856266,1.1948 7.0792,1.1948 7.978533,0 14.350932,-4.7 20.832262,-9.4464" style="fill:#cba6f7;fill-opacity:1;fill-rule:nonzero;stroke:none;stroke-width:0.133333"></path>
  <path id="path71" d="m 9.1792861,56.872032 c 0.260933,1.812 0.379733,3.648 0.7364,5.43867 1.8275999,9.16933 7.6911999,14.73066 16.6969329,15.92266 0.564,0.0745 1.1192,0.112 1.664,0.112 4.250533,0 7.807866,-2.23866 8.986533,-6.13466 0.6036,-1.99734 0.784933,-4.328 0.418266,-6.37467 -1.311466,-7.32667 -5.124533,-13.35467 -10.725066,-18.14933 -2.6328,-2.25467 -5.494267,-3.692 -8.619733,-3.692 -1.726133,0 -3.532933,0.43866 -5.425067,1.42133 -0.134933,-0.33333 -0.304666,-0.672 -0.413466,-1.03067 -1.065734,-3.50133 -2.0792,-7.02133 -3.2141339,-10.5 -0.227066,-0.696 -0.905733,-1.24533 -1.376,-1.86266 -0.798933,0.61066 -2.0224,1.068 -2.3084,1.86266 -0.587466,1.632 -1.080133,3.492 -0.891066,5.17734 0.624933,5.56933 1.4604,11.12933 4.056666,16.228 0.242267,0.476 0.337067,1.044 0.414134,1.58133" style="fill:#cba6f7;fill-opacity:1;fill-rule:nonzero;stroke:none;stroke-width:0.133333"></path>
  <path id="path72" d="m 55.691818,54.480032 c 3.895729,-0.552 5.829599,-3.32 6.837469,-6.708 2.98066,-10.02 1.09213,-19.3 -4.6432,-27.90667 -3.771336,-2.668 -3.742269,-6.52533 -3.292802,-10.5159897 0.0188,-0.164 0.0027,-0.332 0.0043,-0.49867 0.0015,-2.00133 0.0061,-4.00267 0,-6.00267 -0.0043,-1.212 -0.100533,-2.43199999 -1.549466,-2.78932999 -0.164667,-0.04 -0.316267,-0.058700003658 -0.456267,-0.058700003658 -1.014133,0 -1.45,0.9733400036579 -1.936533,1.7253399936579 -2.178134,3.364 -2.990534,7.11466 -3.1364,11.0746597 -0.024,0.64667 -0.438534,1.37067 -0.871334,1.89467 -1.286533,1.556 -3.068799,2.83066 -3.944799,4.57333 -2.674534,5.32 -3.6532,11.10533 -2.996934,16.99733 0.728667,6.53867 3.546934,12.112 8.996933,16.088 1.7672,1.28934 3.705734,2.20534 5.8828,2.20534 0.362,0 0.730667,-0.0253 1.106267,-0.0787" style="fill:#cba6f7;fill-opacity:1;fill-rule:nonzero;stroke:none;stroke-width:0.133333"></path>
  <path id="path73" d="m 88.429287,60.658702 c 4.00773,-1.128 5.78373,-4.32134 6.83706,-7.968 1.51867,-5.25734 2.252,-10.64534 2.20267,-16.12667 0.032,-4.35867 -0.216,-8.676 -2.03467,-12.73467 -1.328,-2.96133 -3.39066,-5.03733 -6.7572,-5.568 -0.35933,-0.056 -0.85573,-0.50266 -0.94013,-0.852 -0.714,-2.96 -1.45413,-5.92266 -1.95147,-8.9239897 -0.18706,-1.12534 -0.6948,-1.33467 -1.5308,-1.33467 -0.038,0 -0.076,0 -0.11506,0.001 -1.61774,0.032 -2.8464,1.196 -3.05787,3.5679997 -0.38853,4.368 -0.49947,8.76133 -0.73373,13.14267 -0.0324,0.60666 -0.0319,1.228 -0.1724,1.81066 -1.21054,5.01067 -2.66987,9.972 -3.60534,15.032 -0.65933,3.56667 -1.138,7.31467 -0.776,10.88934 0.54227,5.35866 5.46147,9.376 10.34067,9.376 0.77187,0 1.54213,-0.10134 2.29427,-0.312" style="fill:#cba6f7;fill-opacity:1;fill-rule:nonzero;stroke:none;stroke-width:0.133333"></path>
  <path id="path74" d="m 107.28769,78.460032 c 1.232,1.29733 2.74933,1.9692 4.25866,1.9692 1.388,0 2.76934,-0.5692 3.91334,-1.7412 1.588,-1.628 2.99333,-3.62933 3.864,-5.72 2.204,-5.29333 3.02933,-10.916 2.664,-16.636 -0.12134,-1.892 -0.64267,-3.86267 -1.44267,-5.58533 -1.31333,-2.83067 -1.82533,-4.13734 -1.80133,-7.29334 0.001,-0.168 0.001,-0.33466 0.001,-0.50133 0.0533,-0.007 0.10533,-0.0147 0.15867,-0.0213 -0.296,-2.14267 -0.456,-4.316 -0.928,-6.41734 -0.47334,-2.108 -1.44267,-4.016 -3.77467,-4.69066 -0.32667,-0.0933 -0.62933,-0.14 -0.90267,-0.14 -1.14,0 -1.77866,0.79066 -1.536,2.15066 0.91734,5.152 -0.25866,10.18 -0.768,15.248 -0.0453,0.46 -0.31333,0.95734 -0.616,1.324 -3.556,4.31867 -5.42266,9.392 -6.55866,14.768 -1.052,4.97734 -0.10267,9.528 3.468,13.28667" style="fill:#cba6f7;fill-opacity:1;fill-rule:nonzero;stroke:none;stroke-width:0.133333"></path>
  <path id="path75" d="m 8.8386191,94.403762 c -0.609333,-0.2548 -1.326,-0.70373 -1.588533,-1.25573 -1,-2.1016 -1.786934,-4.30267 -2.7484,-6.424 -0.524,-1.15467 -1.176,-2.26667 -1.9016,-3.3068 -0.235333,-0.33747 -0.8208,-0.65307 -1.233333,-0.65307 -0.04533,0 -0.088,0.004 -0.128667,0.012 -0.39319999,0.0771 -0.90666699,0.69427 -0.96146699,1.12494 -0.171866,1.35986 -0.4364,2.8068 -0.149466,4.10573 0.608933,2.75413 1.56253299,5.43027 2.33186599,8.1516 0.207734,0.73333 0.3176,1.5068 0.376,2.2692 0.154134,2.029728 -0.08493,4.154668 0.4448,6.073468 1.3828,5.0136 3.859333,9.41613 8.8453329,11.70933 1.300534,0.59747 2.582267,0.87613 3.784267,0.87613 3.958933,0 7.048,-3.02133 7.044266,-7.59066 0.04747,-3.0812 -1.315066,-5.5812 -3.2932,-7.79067 -2.987999,-3.339998 -6.722399,-5.586398 -10.8218659,-7.301468" style="fill:#cba6f7;fill-opacity:1;fill-rule:nonzero;stroke:none;stroke-width:0.133333"></path>
</svg></svg></g></g></svg>